# xmcd
#
# Track frame offsets:
#	183
#	12020
#	23870
#	34933
#	47320
#	58958
#	70945
#	84033
#	97145
#	109120
#	121608
#	134120
#	146183
#	159258
#	172045
#	186158
#
# Disc length: 2651 seconds
#
# Revision: 1
# Processed by: cddbd v1.4PL0 Copyright (c) Steve Scherf et al.
# Submitted via: audiograbber 1.80
#
DISCID=d80a5910
DTITLE=The Platters - The Platters - Greatest-
DYEAR=1900
DGENRE=
TTITLE0=Only You
TTITLE1=The Great Pretender
TTITLE2=(You've Got) The Magic Touch
TTITLE3=My Prayer
TTITLE4=Heaven On Earth
TTITLE5=You'll Never Never Know
TTITLE6=On In A Million
TTITLE7=I'm Sorry
TTITLE8=My Dream
TTITLE9=Twilight Time
TTITLE10=I Wish
TTITLE11=Smoke Gets In Your Eyes
TTITLE12=Enchanted
TTITLE13=Remember When
TTITLE14=Harbour Lights
TTITLE15=To Each His Own
EXTD=
EXTT0=
EXTT1=
EXTT2=
EXTT3=
EXTT4=
EXTT5=
EXTT6=
EXTT7=
EXTT8=
EXTT9=
EXTT10=
EXTT11=
EXTT12=
EXTT13=
EXTT14=
EXTT15=
PLAYORDER=
